<?xml version="1.0" ?><!DOCTYPE svg  PUBLIC '-//W3C//DTD SVG 1.1//EN'  'http://www.w3.org/Graphics/SVG/1.1/DTD/svg11.dtd'><svg enable-background="new 0 0 101 75" height="75" id="Layer_1" overflow="visible" version="1.1" viewBox="0 0 101 75" width="101" xml:space="preserve" xmlns="http://www.w3.org/2000/svg" xmlns:xlink="http://www.w3.org/1999/xlink"><linearGradient gradientTransform="matrix(4.1667 0 0 4.1667 1569.0452 -768.6168)" gradientUnits="userSpaceOnUse" id="XMLID_3_" x1="-377.0356" x2="-351.6201" y1="187.54" y2="199.3915"><stop offset="0" style="stop-color:#FFFFFF"/><stop offset="1" style="stop-color:#FFFFFF"/></linearGradient><path d="M95.834,66.666c0,2.297-1.868,4.168-4.168,4.168H8.333c-2.299,0-4.167-1.871-4.167-4.168V8.334  c0-2.297,1.868-4.168,4.167-4.168h83.333c2.3,0,4.168,1.871,4.168,4.168V66.666z" fill="#FDE57C"/><path d="M18.709,34.849l-0.456,1.825c0.517,0.129,2.108,0.654,2.366-0.379  C20.887,35.217,19.225,34.977,18.709,34.849z" fill="#6E6E96"/><path d="M20.766,29.416c-4.465-1.113-8.987,1.604-10.099,6.068c-1.114,4.465,1.604,8.987,6.067,10.1  c4.466,1.113,8.988-1.604,10.101-6.068C27.947,35.051,25.23,30.529,20.766,29.416z M22.098,39.871  c-0.494,1.41-1.666,1.529-3.225,1.234l-0.379,1.518l-0.914-0.229l0.373-1.496c-0.237-0.06-0.479-0.121-0.729-0.189l-0.375,1.504  l-0.914-0.229l0.379-1.521c-0.214-0.055-0.431-0.112-0.652-0.168L14.473,40l0.453-1.047c0,0,0.674,0.18,0.665,0.166  c0.259,0.064,0.374-0.104,0.419-0.217l0.599-2.397c0.033,0.008,0.065,0.017,0.097,0.024c-0.037-0.016-0.07-0.024-0.096-0.031  l0.427-1.711c0.011-0.195-0.056-0.439-0.426-0.532c0.015-0.01-0.665-0.165-0.665-0.165l0.244-0.977l1.262,0.314l-0.002,0.005  c0.189,0.048,0.385,0.092,0.584,0.138l0.375-1.502l0.914,0.228l-0.367,1.473c0.245,0.056,0.492,0.112,0.732,0.173l0.365-1.463  l0.914,0.228l-0.375,1.503c1.154,0.396,2,0.993,1.834,2.103c-0.121,0.812-0.57,1.204-1.168,1.343  C22.078,38.081,22.496,38.736,22.098,39.871z" fill="#6E6E96"/><path d="M18.023,37.596l-0.502,2.013c0.619,0.154,2.531,0.769,2.814-0.367C20.631,38.057,18.643,37.75,18.023,37.596  z" fill="#6E6E96"/><path d="M37.373,35.592c-0.324-0.405-0.729-0.728-1.221-0.967c-0.488-0.236-1.068-0.357-1.742-0.357  c-0.32,0-0.621,0.037-0.902,0.106c-0.279,0.071-0.561,0.168-0.838,0.294l1.3-5.416l-3.253,0.504L27.084,45.02  c0.406,0.195,0.838,0.351,1.292,0.461c0.454,0.113,0.885,0.197,1.292,0.254c0.404,0.056,0.766,0.086,1.079,0.094  c0.314,0.007,0.537,0.011,0.663,0.011c0.979,0,1.89-0.187,2.729-0.558c0.839-0.37,1.566-0.873,2.184-1.51  c0.617-0.639,1.102-1.387,1.459-2.248c0.357-0.86,0.535-1.773,0.535-2.739c0-0.63-0.077-1.217-0.23-1.764  C37.932,36.475,37.693,35.998,37.373,35.592z M34.937,40.589c-0.181,0.505-0.431,0.954-0.745,1.354  c-0.314,0.397-0.689,0.719-1.125,0.955c-0.434,0.236-0.895,0.356-1.385,0.356c-0.154,0-0.277,0-0.377,0  c-0.1,0-0.182-0.004-0.254-0.012c-0.067-0.009-0.136-0.019-0.197-0.031c-0.063-0.015-0.137-0.026-0.221-0.043l1.385-5.752  c0.254-0.223,0.536-0.37,0.852-0.441c0.314-0.067,0.568-0.105,0.766-0.105c0.602,0,1.016,0.19,1.239,0.568s0.336,0.902,0.336,1.573  C35.21,39.561,35.118,40.086,34.937,40.589z" fill="#6E6E96"/><path d="M43.202,33.156c0.294,0,0.569-0.053,0.829-0.166c0.258-0.113,0.486-0.262,0.682-0.451  c0.196-0.189,0.354-0.412,0.472-0.672c0.119-0.26,0.179-0.535,0.179-0.83c0-0.531-0.176-0.927-0.524-1.187  c-0.351-0.259-0.741-0.388-1.175-0.388c-0.295,0-0.57,0.056-0.83,0.167c-0.259,0.113-0.486,0.264-0.682,0.452  c-0.197,0.189-0.354,0.412-0.475,0.672c-0.117,0.26-0.178,0.535-0.178,0.828c0,0.533,0.174,0.93,0.526,1.188  C42.375,33.027,42.769,33.156,43.202,33.156z" fill="#6E6E96"/><polygon fill="#6E6E96" points="38.582,45.545 41.689,45.545 44.336,34.502 41.207,34.502 "/><path d="M48.906,37.063h3.465L53,34.502h-3.485l0.799-3.256l-3.255,0.505L45,40.441  c-0.168,0.715-0.265,1.393-0.293,2.037c-0.028,0.644,0.071,1.215,0.293,1.711c0.226,0.496,0.602,0.89,1.135,1.178  c0.533,0.285,1.281,0.428,2.246,0.428c0.672,0,1.254-0.054,1.744-0.167c0.49-0.11,0.943-0.243,1.363-0.397l-0.23-2.395  c-0.322,0.113-0.641,0.199-0.954,0.262c-0.315,0.063-0.643,0.096-0.978,0.096c-0.407,0-0.717-0.057-0.934-0.17  c-0.219-0.11-0.369-0.268-0.452-0.471c-0.084-0.203-0.119-0.445-0.104-0.725c0.014-0.28,0.063-0.581,0.146-0.902L48.906,37.063z" fill="#6E6E96"/><path d="M59.479,36.852c0.435,0,0.801,0.045,1.103,0.138c0.3,0.091,0.591,0.19,0.871,0.304l1.071-2.436  c-0.407-0.196-0.857-0.352-1.355-0.473c-0.495-0.119-1.061-0.18-1.689-0.18c-1.008,0-1.922,0.184-2.738,0.547  c-0.82,0.365-1.518,0.861-2.09,1.489c-0.574,0.631-1.017,1.366-1.324,2.206c-0.307,0.84-0.461,1.736-0.461,2.688  c0,0.629,0.09,1.232,0.264,1.805c0.176,0.574,0.457,1.074,0.852,1.504c0.392,0.427,0.89,0.765,1.49,1.019  c0.602,0.25,1.336,0.377,2.203,0.377c0.658,0,1.225-0.062,1.701-0.177c0.477-0.12,0.909-0.26,1.303-0.411l-0.232-2.498  c-0.295,0.125-0.629,0.231-1.008,0.313c-0.377,0.084-0.77,0.127-1.176,0.127c-0.824,0-1.394-0.221-1.701-0.662  c-0.309-0.44-0.463-1.018-0.463-1.731c0-1.202,0.307-2.163,0.914-2.877C57.62,37.209,58.439,36.852,59.479,36.852z" fill="#6E6E96"/><path d="M71.802,35.487c-0.358-0.405-0.813-0.722-1.364-0.944c-0.555-0.225-1.194-0.338-1.924-0.338  c-0.992,0-1.875,0.215-2.644,0.641c-0.769,0.428-1.422,0.979-1.951,1.65c-0.534,0.671-0.937,1.426-1.208,2.268  c-0.273,0.838-0.408,1.678-0.408,2.521c0,0.671,0.088,1.282,0.271,1.836c0.183,0.553,0.449,1.032,0.809,1.438  c0.355,0.405,0.809,0.721,1.354,0.944c0.546,0.224,1.189,0.336,1.933,0.336c1.021,0,1.922-0.215,2.697-0.642  c0.776-0.426,1.425-0.977,1.942-1.646c0.519-0.673,0.91-1.429,1.176-2.267c0.265-0.843,0.396-1.683,0.396-2.521  c0-0.67-0.09-1.285-0.271-1.836C72.427,36.372,72.156,35.895,71.802,35.487z M69.6,40.453c-0.121,0.482-0.301,0.928-0.537,1.333  c-0.239,0.405-0.533,0.741-0.883,1.007c-0.35,0.268-0.756,0.4-1.217,0.4c-0.589,0-0.994-0.197-1.219-0.588  c-0.223-0.394-0.336-0.938-0.336-1.64c0-0.435,0.059-0.891,0.178-1.375c0.121-0.481,0.298-0.926,0.537-1.333  c0.236-0.405,0.531-0.741,0.881-1.009c0.35-0.264,0.756-0.398,1.217-0.398c0.588,0,0.994,0.197,1.219,0.588  c0.225,0.393,0.336,0.939,0.336,1.639C69.775,39.512,69.716,39.971,69.6,40.453z" fill="#6E6E96"/><path d="M77.777,33.156c0.295,0,0.57-0.053,0.83-0.166c0.26-0.113,0.485-0.262,0.683-0.451  c0.196-0.189,0.354-0.412,0.472-0.672c0.117-0.26,0.18-0.535,0.18-0.83c0-0.531-0.176-0.927-0.525-1.187  c-0.35-0.259-0.742-0.388-1.178-0.388c-0.293,0-0.568,0.056-0.827,0.167c-0.259,0.113-0.486,0.264-0.683,0.452  c-0.196,0.189-0.354,0.412-0.473,0.672c-0.119,0.26-0.18,0.535-0.18,0.828c0,0.533,0.176,0.93,0.525,1.188  S77.344,33.156,77.777,33.156z" fill="#6E6E96"/><polygon fill="#6E6E96" points="75.781,34.502 73.157,45.545 76.268,45.545 78.912,34.502 "/><path d="M85.602,34.248c-0.559,0-1.061,0.023-1.5,0.074c-0.44,0.049-0.842,0.111-1.197,0.189  c-0.357,0.076-0.68,0.16-0.967,0.25c-0.287,0.091-0.551,0.174-0.785,0.242l-2.543,10.539h3.129L83.775,37  c0.42-0.084,0.834-0.129,1.238-0.129c0.42,0,0.729,0.082,0.936,0.242c0.201,0.163,0.332,0.373,0.387,0.631  c0.059,0.26,0.061,0.561,0.012,0.902c-0.049,0.344-0.115,0.694-0.199,1.061l-1.387,5.837h3.129l1.43-5.962  c0.404-1.651,0.297-2.953-0.327-3.905C88.369,34.725,87.238,34.248,85.602,34.248z" fill="#6E6E96"/></svg>